<?xml version="1.0" encoding="UTF-8"?>
<svg version="1.1" xmlns="http://www.w3.org/2000/svg" width="512" height="512">
<path d="M0 0 C12.20127981 5.14792447 22.65399147 11.82060726 32.6875 20.5 C33.54601562 21.17289063 34.40453125 21.84578125 35.2890625 22.5390625 C43.63516484 29.36274878 51.15398651 39.27747752 56.6875 48.5 C56.6875 49.16 56.6875 49.82 56.6875 50.5 C57.73808594 50.47679687 58.78867188 50.45359375 59.87109375 50.4296875 C66.71375242 50.32530658 73.02638992 50.29809055 79.6875 52.0390625 C87.35996812 53.80732664 93.82104959 52.11684989 100.6875 48.5 C103.46822488 46.63767967 106.06905619 44.58187745 108.6875 42.5 C116.79594824 36.16972024 126.67051566 34.01843777 136.875 34.5625 C147.19940024 35.89908022 154.43037934 39.80086656 162.62304688 45.91333008 C169.49663016 50.97452794 175.9906165 53.48455285 184.6875 52.5 C187.06469437 52.04317261 189.41704778 51.52319464 191.7734375 50.96875 C194.6875 50.5 194.6875 50.5 198.4140625 50.53125 C205.73004897 50.85623354 205.73004897 50.85623354 211.78125 47.44921875 C212.88424149 45.58116209 213.92113986 43.67308482 214.90234375 41.73828125 C225.95943809 21.68066372 249.7954917 6.39395681 270.71875 -1.66796875 C276.78502281 -3.36812153 283.15054457 -3.55307584 289 -1.125 C295.01006334 4.74529442 299.00827076 11.70383458 302.6875 19.1875 C303.00259521 19.80471924 303.31769043 20.42193848 303.64233398 21.05786133 C305.76536809 25.58494601 305.83727446 28.6745217 304.6875 33.5 C303.625 35.4375 303.625 35.4375 301.6875 36.5 C296.11357683 37.20779977 296.11357683 37.20779977 293.6875 36.5 C289.78372193 32.5494701 287.45560183 27.58016366 284.9375 22.6875 C284.52628906 21.89923828 284.11507813 21.11097656 283.69140625 20.29882812 C282.68524822 18.36840864 281.68570031 16.43454633 280.6875 14.5 C275.13427489 15.01724736 270.94130576 16.4552124 266 19 C264.95235474 19.53620972 264.95235474 19.53620972 263.88354492 20.08325195 C249.26667512 27.78223944 233.59030318 40.61399255 225.6875 55.5 C225.6875 56.49 225.6875 57.48 225.6875 58.5 C228.1265706 60.70142332 228.1265706 60.70142332 230.6875 62.5 C234.31591934 61.01307537 236.15017552 59.00209034 238.625 56 C242.23730973 51.90485679 245.98822035 48.32759423 250.25 44.9375 C250.76747803 44.50824219 251.28495605 44.07898437 251.81811523 43.63671875 C256.13287978 40.31071223 259.38943225 39.71062655 264.6875 39.5 C270.0037863 41.09488589 272.58759106 42.96263328 275.6875 47.5 C282.21381073 64.98406701 280.17755053 81.84494693 275.6875 99.5 C276.5228125 99.87125 276.5228125 99.87125 277.375 100.25 C280.08611227 101.71546609 282.30373338 103.55503619 284.6875 105.5 C292.80125055 90.91348215 296.19914728 77.53105865 296.18505859 60.86132812 C296.26894696 54.08703837 296.26894696 54.08703837 298.53125 50.9140625 C301.31594347 49.08786859 303.36757182 48.63833034 306.6875 48.5 C309.34153599 49.31095544 310.34151859 49.92785657 311.77807617 52.3034668 C313.38199761 56.17742147 313.02567195 60.17161489 313 64.3125 C312.99436035 65.25375732 312.9887207 66.19501465 312.98291016 67.16479492 C312.7039442 83.37934566 307.88227185 108.30522815 295.6875 120.5 C295.5652193 124.3337583 295.78874395 128.16840472 295.9375 132 C295.96457031 133.06476563 295.99164063 134.12953125 296.01953125 135.2265625 C296.3764712 144.59911472 297.63685231 152.77899298 304.6875 159.5 C305.93511142 160.52375116 307.18532787 161.54433221 308.4375 162.5625 C316.25737059 169.26948578 323.33765644 179.12217049 324.6875 189.5 C325.4021663 199.63997541 324.58721647 208.25698526 320.78515625 217.75390625 C318.12888392 224.79241587 318.00320172 230.50624977 320.9609375 237.51953125 C322.46628814 240.55697734 324.04616145 243.53407244 325.6875 246.5 C331.61361851 257.34231972 333.5168172 267.81367578 330.0625 279.875 C328.57277877 284.41357722 326.72862582 288.5290364 324.5 292.75 C320.9350818 299.60908311 319.5623797 305.59593561 321.75 313.20703125 C322.9972684 316.25764189 324.58305819 319.0595325 326.1875 321.9375 C329.06916445 327.14366717 331.1151596 331.56847226 331.6875 337.5 C331.76871094 338.33789062 331.84992188 339.17578125 331.93359375 340.0390625 C332.42837278 350.44441553 329.00705714 359.66681795 323.796875 368.52734375 C320.321375 374.70737016 319.86221217 380.76652193 321.6875 387.5 C323.17640813 390.96752956 324.90240237 394.30735049 326.71630859 397.61499023 C332.20046875 407.72144184 333.21820507 417.8391333 330.125 428.9375 C328.21462298 434.68917275 325.5225766 439.64537101 322.2734375 444.74609375 C318.73493004 450.89054636 317.97543746 456.54449057 318.6875 463.5 C319.1403831 465.1387562 319.64132006 466.76493402 320.1875 468.375 C322.94767393 476.8007941 322.73762243 485.10890521 318.99609375 493.1875 C314.20498122 501.65418245 307.77252446 506.13496785 298.6875 509.5 C294.02412175 510.29028339 289.48114385 510.31267504 284.75915527 510.26190186 C283.39202687 510.26883111 282.02490968 510.278371 280.65781546 510.29026532 C276.93386401 510.31512616 273.21084464 510.30301985 269.48689151 510.28434801 C265.45814377 510.27070103 261.42954973 510.29176184 257.40083313 510.30822754 C249.52156571 510.33483699 241.64264219 510.32917623 233.76336157 510.31175169 C227.35687616 510.29817351 220.95048678 510.29637569 214.54399109 510.30289459 C213.17366006 510.30427369 213.17366006 510.30427369 211.77564558 510.30568065 C209.91948574 510.3075991 208.06332592 510.30954438 206.20716614 510.3115162 C188.82249505 510.32860485 171.43801413 510.30898594 154.05337423 510.276714 C139.15283789 510.24990926 124.25258206 510.25456599 109.35205078 510.28222656 C92.02746228 510.31437221 74.70304024 510.32695709 57.37842607 510.30855298 C55.52928705 510.30664179 53.68014799 510.30475556 51.83100891 510.30289459 C50.92131681 510.30196894 50.01162471 510.30104329 49.07436618 510.30008958 C42.67931264 510.29491997 36.28436512 510.30362969 29.889328 510.31777191 C22.09046999 510.33464032 14.29197407 510.32996186 6.49315727 510.29808745 C2.51781161 510.28237267 -1.45693144 510.27605007 -5.43227196 510.29598236 C-9.07817397 510.3139857 -12.72292027 510.30383709 -16.3687188 510.27211705 C-18.29787042 510.26233919 -20.22710357 510.28171816 -22.15616846 510.30246043 C-31.52399432 510.17712993 -39.49200811 507.83863877 -46.57986975 501.45927501 C-52.81845441 494.86744611 -55.65159208 487.14530868 -55.6171875 478.0625 C-55.20997703 474.63775555 -54.21627805 471.42361685 -53.25 468.125 C-51.03479836 460.22408186 -50.14203654 454.65882454 -54.03515625 447.19921875 C-55.07633263 445.38966221 -56.14186018 443.59696374 -57.21777344 441.80786133 C-63.99366505 430.49688807 -66.59734711 418.34805762 -63.58203125 405.3515625 C-61.77072741 400.0729056 -59.2436786 395.24359303 -56.36328125 390.47265625 C-53.23498699 384.59983617 -53.60287961 377.90482466 -55.4375 371.6875 C-57.36464922 367.08272518 -59.70368228 362.65922209 -62.0078125 358.234375 C-65.8195395 350.2457256 -65.60425416 338.9899552 -63.59375 330.4453125 C-62.63532335 328.02605813 -61.55316177 325.78647601 -60.3125 323.5 C-59.4156312 321.68801215 -58.51979996 319.87551038 -57.625 318.0625 C-57.00044922 316.85787109 -57.00044922 316.85787109 -56.36328125 315.62890625 C-53.42112981 309.66804181 -53.5831897 303.97155157 -55.4375 297.6875 C-57.36464922 293.08272518 -59.70368228 288.65922209 -62.0078125 284.234375 C-66.13754396 275.57924918 -65.8253045 262.54625563 -62.6875 253.5625 C-61.10649817 249.86973143 -59.17070268 246.42754786 -57.1875 242.9375 C-52.90463781 235.28487314 -51.46269788 228.67377153 -53.53515625 220.0859375 C-54.66137898 216.33940763 -55.9844167 212.68532979 -57.41015625 209.04296875 C-60.78867454 199.52168993 -59.85980502 189.83501322 -56.3125 180.5 C-52.29692073 172.17679934 -46.79371333 166.31221274 -39.6875 160.5625 C-35.17260283 156.77974832 -32.16919122 152.07007367 -30.3125 146.5 C-30.10649003 143.76750662 -29.93954274 141.04862415 -29.8125 138.3125 C-29.74230531 136.8397115 -29.66939754 135.36704975 -29.59375 133.89453125 C-29.55838135 133.16435791 -29.5230127 132.43418457 -29.48657227 131.68188477 C-29.31416562 129.52087748 -28.94804223 127.45905513 -28.55859375 125.328125 C-28.25954586 120.67626892 -29.19768881 119.17981896 -31.875 115.4375 C-45.31054609 95.47443174 -48.84137018 70.60818741 -45.0703125 47.10546875 C-41.60913681 30.63812255 -35.58281156 10.61836914 -22.3125 -0.5 C-15.1730171 -4.72016044 -7.33010105 -2.92996042 0 0 Z M-14.3125 13.5 C-27.56989312 35.48012236 -34.1058524 58.14537731 -28.37109375 83.7734375 C-26.24904799 91.24366499 -23.63700072 99.01324892 -19.3125 105.5 C-14.71943504 104.0140084 -11.87680755 101.64985318 -8.3125 98.5 C-8.51746094 97.75878906 -8.72242187 97.01757812 -8.93359375 96.25390625 C-12.91575958 80.68725801 -15.33751247 60.19095025 -7.3125 45.5 C-3.29672298 41.84929362 0.27692547 40.59492236 5.6875 40.5 C16.97797326 43.69541696 26.77254927 54.37226504 33.6875 63.5 C37.51252165 61.94165785 39.83533821 59.42784104 42.6875 56.5 C29.1914853 37.82073328 12.71320022 19.90492357 -10.3125 13.5 C-11.6325 13.5 -12.9525 13.5 -14.3125 13.5 Z M111.64355469 60.20288086 C102.09163174 66.91916412 90.62769131 70.02089053 79.046875 68.05078125 C78.14453125 67.86902344 77.2421875 67.68726562 76.3125 67.5 C68.54786375 66.00137091 60.69013178 64.90196281 53.58984375 69.0546875 C47.92160604 73.36115147 43.98405475 78.64757533 40.75 84.9375 C34.84764728 96.23583738 26.89034142 103.21536778 14.71728516 107.13427734 C12.62707404 107.76700321 10.53317322 108.38562535 8.4375 109 C0.25930517 111.42451757 -5.58845311 114.15658495 -10.1875 121.5625 C-12.60093685 126.83689841 -12.88655681 132.10777799 -13.3125 137.8125 C-14.6248488 155.04932003 -20.84295946 164.28562672 -32.921875 176.0390625 C-33.71078125 176.80992187 -34.4996875 177.58078125 -35.3125 178.375 C-36.01375 179.03242188 -36.715 179.68984375 -37.4375 180.3671875 C-42.57217877 186.2078846 -42.92689908 191.72778242 -42.81640625 199.2265625 C-42.4299765 203.96720783 -40.94203428 208.18355417 -39.3125 212.625 C-35.31870505 223.51045615 -34.5971473 233.65160687 -39.3125 244.5 C-40.97030315 247.81916 -42.71539999 251.08843699 -44.53125 254.32373047 C-48.49552919 261.40466336 -49.07278307 267.41808687 -48.3125 275.5 C-47.34455277 278.42891805 -45.92825909 280.8840091 -44.3125 283.5 C-38.12716685 294.80269512 -36.37574314 305.62732238 -40 318.1875 C-41.31653553 322.12305105 -42.82206065 325.62201172 -44.9375 329.1875 C-48.39886474 335.04931583 -49.98571799 341.15218772 -48.8125 347.9375 C-47.55333571 352.61204457 -45.15463744 356.56503312 -42.77734375 360.75 C-37.41738007 370.81243849 -36.84909496 381.15616589 -39.9375 392.0625 C-41.39341002 396.43023006 -43.19607863 400.26949007 -45.5 404.25 C-49.46115699 411.16948942 -50.19963498 417.39296653 -48.2421875 425.12890625 C-47.12902597 427.96793586 -45.63187381 430.27821127 -43.9375 432.8125 C-36.60963875 443.873134 -35.17737511 454.53635775 -36.3125 467.5 C-36.9485302 469.95079028 -37.74460332 472.17743979 -38.69140625 474.51953125 C-39.86535321 478.26287156 -39.46886855 481.79404778 -38.3125 485.5 C-35.88851503 489.58066534 -32.65920745 492.88149597 -27.97164953 494.11696035 C-25.19740257 494.51657932 -22.56883584 494.62657203 -19.76610756 494.62863445 C-18.10129544 494.63347112 -18.10129544 494.63347112 -16.40285075 494.6384055 C-15.18875918 494.6368569 -13.97466762 494.6353083 -12.7237854 494.63371277 C-11.42996614 494.63597833 -10.13614688 494.63824388 -8.80312097 494.64057809 C-5.21362672 494.64669582 -1.62415576 494.64656253 1.96534252 494.64538372 C5.83727566 494.6451797 9.70920132 494.6506985 13.58113098 494.65544128 C21.16613039 494.66374812 28.75112202 494.66649614 36.3361256 494.66705366 C42.5010891 494.66752878 48.66605004 494.66958333 54.83101273 494.67275429 C72.30801015 494.68156074 89.78500143 494.68617365 107.26200108 494.68542381 C108.2042126 494.68538386 109.14642412 494.6853439 110.1171875 494.68530273 C111.0605487 494.68526185 112.0039099 494.68522097 112.97585781 494.68517885 C128.26738989 494.68477233 143.55889735 494.69434358 158.85042231 494.7084411 C174.54987844 494.72280056 190.24932256 494.72971153 205.94878542 494.72884732 C214.76357031 494.72851522 223.57832939 494.73126828 232.39310837 494.74202538 C239.89754376 494.75112469 247.40194164 494.75331029 254.90638016 494.74651595 C258.73506216 494.74324795 262.56367216 494.74320419 266.39234734 494.7518692 C270.54322559 494.76116682 274.69393669 494.75496555 278.84481812 494.74723816 C280.05444824 494.75238172 281.26407836 494.75752529 282.51036394 494.76282471 C292.19628834 494.94466692 292.19628834 494.94466692 300.6484375 490.84375 C301.11507813 490.2353125 301.58171875 489.626875 302.0625 489 C302.54460937 488.3915625 303.02671875 487.783125 303.5234375 487.15625 C306.14457429 483.42684732 306.13619298 479.92710405 305.6875 475.5 C305.22326815 473.98854746 304.72056865 472.48856905 304.1875 471 C300.74596945 460.31314198 301.6199222 448.48018381 306.6875 438.5 C308.17465672 435.93727562 309.72087932 433.42151937 311.29296875 430.91015625 C314.90385755 424.66948849 317.0913903 417.77819222 315.18359375 410.60546875 C313.87081605 406.80216421 312.10736184 403.37052561 310.125 399.875 C304.83230805 390.51345178 303.48824732 380.14560273 305.6796875 369.57421875 C307.47560096 364.09598661 310.20282118 359.07898472 312.91015625 354.00390625 C315.8514079 348.20543871 316.87269195 342.4420515 314.96875 336.109375 C313.26898259 331.75029406 311.24610357 327.63394386 309.0625 323.5 C304.06738855 313.58686216 303.31098824 302.87782754 306.734375 292.25 C308.97010725 286.72967347 311.6926432 281.63404023 314.6875 276.5 C316.91188217 270.75367939 316.10597921 264.47064664 313.8125 258.90234375 C311.7646605 254.52935315 309.54631781 250.24298716 307.30859375 245.96484375 C301.83127052 234.25789024 302.48328614 222.33893369 306.6171875 210.3046875 C307.29988405 208.51572355 308.02162138 206.74084789 308.79296875 204.98828125 C310.80797209 199.38322828 310.58267409 193.17838941 308.70703125 187.56640625 C305.98788477 181.76692432 305.98788477 181.76692432 300.6875 178.5 C300.6875 177.84 300.6875 177.18 300.6875 176.5 C299.13062057 175.00399645 299.13062057 175.00399645 297.125 173.4375 C285.12793046 163.16036432 281.37269704 151.9786351 279.99804688 136.62304688 C278.94932181 127.104364 275.38361536 120.06294769 267.9140625 113.9921875 C263.29726079 110.89812039 258.15937552 109.32046716 252.921875 107.58203125 C238.12281451 102.51810692 230.79192902 94.19519641 223.56445312 80.72851562 C220.18348031 74.69920456 216.1807416 70.2466208 209.9375 67.125 C202.18665128 65.63445217 194.97212263 66.53337458 187.3046875 68.04296875 C174.93421394 70.20318577 164.08867875 66.06415854 153.6875 59.5 C152.27690991 58.4571709 150.8797424 57.39581337 149.5 56.3125 C143.84367966 51.93230071 138.16167588 49.84494706 130.95703125 50.1640625 C123.41168016 51.2809303 117.67553376 55.85537342 111.64355469 60.20288086 Z M4.6875 57.5 C1.89460602 69.2201801 1.11018178 82.34536357 6.6875 93.5 C14.56911601 91.58411311 18.97907015 89.32805662 24.625 83.5 C25.88318024 81.54424099 25.88318024 81.54424099 25.57421875 79.2421875 C24.39419104 75.59293882 22.17954719 73.3167213 19.5625 70.625 C19.06693604 70.10196289 18.57137207 69.57892578 18.06079102 69.04003906 C16.61233144 67.51742627 15.15089488 66.00824003 13.6875 64.5 C12.95660156 63.72914062 12.22570312 62.95828125 11.47265625 62.1640625 C9.16514635 59.74023748 9.16514635 59.74023748 6.6875 57.5 C6.0275 57.5 5.3675 57.5 4.6875 57.5 Z M250.6875 66.5 C246.39621024 70.89026515 242.73912414 74.63235496 240.6875 80.5 C245.31314831 86.67263665 250.21245776 91.10850921 257.6875 93.5 C259.1725 93.005 259.1725 93.005 260.6875 92.5 C265.31327172 81.97303803 265.18160723 68.26073661 261.6875 57.5 C258.21881046 57.5 253.09468979 64.21057201 250.6875 66.5 Z " fill="#387DC2" transform="translate(122.3125,2.5)"/>
<path d="M0 0 C2.87116309 1.39189457 5.71239957 2.83214945 8.52929688 4.33081055 C15.20394774 7.63908263 24.34458493 7.08999969 31.46264648 5.42480469 C36.57695148 3.6309288 40.86707626 1.34907357 45.23999023 -1.82128906 C53.09144843 -4.43844179 60.3519464 -3.61384188 67.67480469 -0.0065918 C69.73409229 1.0801166 71.77266415 2.19735275 73.80639648 3.33105469 C81.19202177 7.30534452 90.21847921 7.47915354 98.28686523 5.38964844 C100.9768839 4.39418955 103.60914321 3.32078406 106.23999023 2.17871094 C113.89588198 -0.95957196 119.6470362 -1.58780985 127.48999023 1.42871094 C132.93402972 4.8930997 136.16353686 9.18551767 138.92749023 14.92871094 C139.26071289 15.61280029 139.59393555 16.29688965 139.93725586 17.00170898 C157.15140765 53.15537594 167.53341863 92.15554348 169.23999023 132.17871094 C169.29413086 133.29375 169.34827148 134.40878906 169.40405273 135.55761719 C170.19713249 166.09118787 159.66563745 194.85460622 140.23999023 218.17871094 C139.6844043 218.87480469 139.12881836 219.57089844 138.55639648 220.28808594 C134.89012663 224.77901812 130.68090582 228.47023803 126.23999023 232.17871094 C125.00249023 233.24798828 125.00249023 233.24798828 123.73999023 234.33886719 C98.62410972 255.62165547 64.16458359 268.34429674 31.23999023 269.17871094 C30.4054834 269.20449219 29.57097656 269.23027344 28.71118164 269.25683594 C-7.68803065 270.26286012 -43.35077355 262.18933359 -73.44750977 240.99121094 C-74.02380127 240.58741211 -74.60009277 240.18361328 -75.19384766 239.76757812 C-79.55227009 236.59427815 -83.36427758 233.60257054 -84.26000977 228.11621094 C-83.63396768 224.43821367 -82.78707725 223.32952204 -79.76000977 221.17871094 C-77.07250977 220.05371094 -77.07250977 220.05371094 -73.76000977 220.17871094 C-70.52459862 221.83310674 -67.69215189 224.04390571 -64.76000977 226.17871094 C-31.4122461 248.81330415 9.50829935 257.41854896 49.29077148 250.22167969 C72.65818716 245.52200933 95.00415191 236.86408236 113.23999023 221.17871094 C114.18358398 220.37949219 115.12717773 219.58027344 116.09936523 218.75683594 C138.83125805 199.03330852 150.28506707 172.16289801 152.52124023 142.44042969 C153.60078472 100.5631 140.95431222 58.70325735 123.23999023 21.17871094 C122.75320801 20.08127563 122.75320801 20.08127563 122.2565918 18.96166992 C121.35525302 16.94596611 121.35525302 16.94596611 118.94311523 16.28417969 C115.62436774 16.15469098 113.92535716 16.96773834 110.98999023 18.49121094 C97.78948938 24.79383734 82.92434583 25.21272806 69.11108398 20.40136719 C65.61825748 18.91394583 62.42485503 17.08580451 59.15405273 15.17089844 C56.22921426 13.65475768 54.46171808 13.49323693 51.23999023 14.17871094 C50.02924851 14.89058223 48.84386766 15.64626608 47.67749023 16.42871094 C36.0022442 24.13173981 21.15459103 25.2094123 7.67358398 22.44824219 C2.89572163 20.95325333 -1.31470435 18.939352 -5.63500977 16.42871094 C-9.26591047 14.33345999 -11.49699645 13.29058316 -15.76000977 14.17871094 C-17.97074361 15.30627398 -20.09577267 16.55139382 -22.24047852 17.79980469 C-35.14726923 24.86352115 -50.22711652 25.14317326 -64.20532227 21.11621094 C-66.67455347 20.21007105 -68.93544055 19.15485734 -71.26000977 17.92871094 C-74.40157515 16.04745124 -74.40157515 16.04745124 -76.72875977 16.13183594 C-80.03455528 17.83559209 -81.2023661 20.95670458 -82.76000977 24.17871094 C-83.25355957 25.19795654 -83.25355957 25.19795654 -83.75708008 26.23779297 C-94.25080002 48.70043696 -102.20122367 72.81327345 -106.76000977 97.17871094 C-106.92082031 97.97841309 -107.08163086 98.77811523 -107.24731445 99.60205078 C-109.60142618 111.53521301 -110.06428977 123.42415979 -110.13500977 135.55371094 C-110.14295563 136.26765015 -110.15090149 136.98158936 -110.15908813 137.71716309 C-110.34962328 159.9703877 -104.3195424 181.87864376 -91.32250977 200.17871094 C-89.49287765 202.83462852 -88.75520526 204.20142313 -88.07250977 207.42871094 C-89.05049263 211.34064238 -90.47383937 212.87139981 -93.76000977 215.17871094 C-97.43945668 215.51940047 -99.55454271 215.1408978 -102.48266602 212.80371094 C-124.71637928 189.30384088 -127.65512573 154.82525435 -127.05207825 124.29518127 C-125.99663371 87.92185779 -114.28474291 51.05857311 -99.07250977 18.30371094 C-98.64550781 17.36503174 -98.21850586 16.42635254 -97.77856445 15.45922852 C-94.5793161 8.84293401 -90.90720364 4.44649087 -84.42407227 0.90136719 C-75.21134448 -2.08129755 -68.77191539 -0.21248031 -60.24047852 4.02246094 C-52.7871456 7.49677045 -43.2040724 7.46609872 -35.38891602 5.20214844 C-31.67902222 3.66147917 -28.1335205 1.97928609 -24.66235352 -0.04394531 C-16.25480104 -4.86059242 -8.57529677 -3.92540745 0 0 Z " fill="#387DC2" transform="translate(234.760009765625,177.8212890625)"/>
<path d="M0 0 C3.5 1.0625 3.5 1.0625 5.875 3.125 C9.16544231 5.5536598 11.22440527 5.685121 15.234375 5.5390625 C18.44961174 4.86275408 20.30962843 3.16936317 22.8046875 1.12109375 C24.5 0.0625 24.5 0.0625 28.25 0.0625 C32.83561644 1.4734589 32.83561644 1.4734589 34.5 4.0625 C35.64013045 7.1571398 35.73618594 8.50676837 34.4375 11.5625 C31.08351327 15.89022481 27.37621469 18.62439266 22.5 21.0625 C22.5 24.0325 22.5 27.0025 22.5 30.0625 C29.18865291 30.58505101 32.2108107 29.94476359 37.6484375 26.12109375 C39.5 25.0625 39.5 25.0625 42.8125 25.0625 C45.61047019 26.10360519 46.87250674 26.57843134 48.5 29.0625 C49.7554894 32.82896819 49.76230639 34.47827214 48.125 38.125 C43.72077976 43.05353217 37.39406893 46.83058177 30.6796875 47.23046875 C24.69565717 47.26583536 19.32233082 47.14841967 13.59765625 45.3046875 C10.59106389 44.95755766 8.34366136 46.08631774 5.5 47.0625 C-4.34453621 48.12477116 -11.47451186 46.62222076 -19.5 40.9375 C-22.24248222 38.36642292 -22.46731297 37.50377485 -22.75 33.6875 C-22.5 30.0625 -22.5 30.0625 -21.375 27.6875 C-18.75065402 25.41306682 -16.95152438 25.13153049 -13.5 25.0625 C-10.8125 26.375 -10.8125 26.375 -8.5 28.0625 C-5.07905758 30.34312828 -3.81812778 30.28175007 0.1875 30.1875 C1.18136719 30.16945313 2.17523438 30.15140625 3.19921875 30.1328125 C3.95847656 30.10960937 4.71773437 30.08640625 5.5 30.0625 C5.5 27.0925 5.5 24.1225 5.5 21.0625 C4.675 20.876875 3.85 20.69125 3 20.5 C-1.70752269 18.56655318 -5.25769871 16.00583941 -8.5 12.0625 C-9.3125 8.4375 -9.3125 8.4375 -8.5 5.0625 C-5.87025476 1.23741602 -4.69739808 0.08388211 0 0 Z " fill="#387EC1" transform="translate(242.5,305.9375)"/>
<path d="M0 0 C1.04542969 -0.01998047 2.09085937 -0.03996094 3.16796875 -0.06054688 C4.17472656 -0.05990234 5.18148438 -0.05925781 6.21875 -0.05859375 C7.13591797 -0.06044678 8.05308594 -0.0622998 8.99804688 -0.06420898 C12.27913532 0.59373762 13.46780113 1.82404792 15.5 4.4375 C16 7.9375 16 7.9375 15.5 11.4375 C13.28136971 14.34467073 11.98055071 15.27731643 8.5 16.4375 C5.71554845 16.58630933 2.97257615 16.66857 0.1875 16.6875 C-0.55951172 16.708125 -1.30652344 16.72875 -2.07617188 16.75 C-6.96689462 16.78435099 -10.24591147 16.10609235 -14.5 13.4375 C-16.52004995 10.8904805 -16.50859788 9.64814804 -16.375 6.375 C-14.06854676 -1.36809301 -6.70278534 -0.04545662 0 0 Z " fill="#397DC1" transform="translate(336.5,315.5625)"/>
<path d="M0 0 C1.04542969 -0.02835937 2.09085938 -0.05671875 3.16796875 -0.0859375 C10.80454182 -0.10549338 10.80454182 -0.10549338 14.1875 2.83984375 C15.78807997 6.08387638 16.10779135 7.9292258 15.5 11.5 C13.26793569 14.34780619 11.95007001 15.34997666 8.5 16.5 C5.69637366 16.62276572 2.92849845 16.68513218 0.125 16.6875 C-0.63039062 16.69974609 -1.38578125 16.71199219 -2.1640625 16.72460938 C-7.31501252 16.73811711 -11.3851554 16.40336014 -15.375 12.8125 C-17.05034251 9.36874039 -16.49044279 7.13162357 -15.5 3.5 C-11.04290121 -0.84630085 -5.86567422 -0.01446529 0 0 Z " fill="#387DC1" transform="translate(175.5,315.5)"/>
<path d="M0 0 C2.77041831 2.60706818 3.00757799 4.07481405 3.3984375 7.93359375 C3.4063739 9.43489518 3.39807482 10.93635493 3.375 12.4375 C3.38660156 13.18837891 3.39820313 13.93925781 3.41015625 14.71289062 C3.3860408 19.28276798 2.93480726 22.28496349 0 26 C-2.88861709 27.44430855 -4.79647701 27.37688506 -8 27 C-10.74854949 24.98680805 -12.7012835 23.40536754 -13.43237305 19.96582031 C-13.56480767 17.60402676 -13.53477784 15.30077926 -13.4375 12.9375 C-13.43169922 12.13505859 -13.42589844 11.33261719 -13.41992188 10.50585938 C-13.33582917 6.45259118 -13.16177315 3.53336792 -11 0 C-6.85462642 -2.53328385 -4.29989381 -2.05647095 0 0 Z " fill="#397EC2" transform="translate(331,284)"/>
<path d="M0 0 C1.81947279 3.63894558 1.31317595 7.86767734 1.375 11.875 C1.41238281 12.78636719 1.44976562 13.69773437 1.48828125 14.63671875 C1.57658645 21.33810229 1.57658645 21.33810229 -1.296875 24.63671875 C-4.97614725 26.49230548 -7.07907828 26.08914492 -11 25 C-13.81850061 23.02704958 -14.36025921 21.29410391 -15 18 C-15.93885925 4.02544112 -15.93885925 4.02544112 -12 -1 C-7.49932398 -4.12546946 -4.54627705 -2.44799533 0 0 Z " fill="#387EC2" transform="translate(192,285)"/>
</svg>
